Coordinates
version=1
nRows=21
nColumns=22
inDegrees=yes

Units are S.I. units (second, meters, Newtons, ...)
If the header above contains a line with 'inDegrees', this indicates whether rotational values are in degrees (yes) or radians (no).

endheader
time	pelvis_tilt	pelvis_list	pelvis_rotation	pelvis_tx	pelvis_ty	pelvis_tz	hip_flexion_r	hip_adduction_r	hip_rotation_r	knee_angle_r	ankle_angle_r	subtalar_angle_r	hip_flexion_l	hip_adduction_l	hip_rotation_l	knee_angle_l	ankle_angle_l	subtalar_angle_l	lumbar_extension	lumbar_bending	lumbar_rotation
      2.78000000	     -4.60682443	     -1.54496676	    -13.81354477	     -0.20984463	      0.85225570	     -0.67284555	     -4.34848553	      3.13186019	     19.53330650	    -28.13028972	     21.64322736	     -3.51666376	     29.21978879	    -11.45874820	      8.95197742	    -20.01488357	      1.84427545	     19.77636364	     -1.06304756	      5.59662679	      9.91011558
      2.79000000	     -4.38046925	     -1.05636327	    -14.26451253	     -0.20083486	      0.85265718	     -0.67385596	     -3.91257417	      2.65426145	     19.58493870	    -30.29522756	     20.67693184	     -3.34334259	     29.05796254	    -10.88057230	      8.28550628	    -21.31136724	      1.68813919	     19.70500505	     -1.23371761	      5.02215265	      9.41846371
      2.80000000	     -4.13441427	     -0.56768766	    -14.71048028	     -0.19203016	      0.85324588	     -0.67470735	     -3.28402217	      2.21743293	     19.39902615	    -32.78521558	     19.47513037	     -2.91529135	     28.82888061	    -10.30883814	      7.59327809	    -22.51288538	      1.79700289	     19.25028154	     -1.44567730	      4.42116661	      8.94040204
      2.81000000	     -3.82212493	     -0.05774072	    -15.20144877	     -0.18340523	      0.85408906	     -0.67529911	     -2.50483299	      1.77005915	     18.97654929	    -35.58142937	     18.07139263	     -2.70574479	     28.41479817	     -9.73030652	      6.83981107	    -23.51873951	      2.16909845	     18.67648913	     -1.73842833	      3.75574379	      8.50309304
      2.82000000	     -3.50173043	      0.46897172	    -15.75125204	     -0.17501058	      0.85508467	     -0.67568704	     -1.50767351	      1.29942986	     18.30696135	    -38.64971272	     16.48560054	     -2.66265624	     27.87954962	     -9.14968832	      6.05908561	    -24.31945667	      2.70509285	     17.97073625	     -2.04876412	      3.06007846	      8.10807130
      2.83000000	     -3.19320648	      1.01101632	    -16.38535772	     -0.16688089	      0.85618124	     -0.67585081	     -0.27023545	      0.78693663	     17.41102153	    -41.94988865	     14.76521861	     -2.83116167	     27.23326836	     -8.57586008	      5.25816944	    -24.89236519	      3.34347017	     17.15186759	     -2.35051765	      2.34142708	      7.79630628
      2.84000000	     -2.91714395	      1.56527043	    -17.12072366	     -0.15903190	      0.85732190	     -0.67580633	      1.20918740	      0.21381563	     16.33045825	    -45.40494350	     13.00606020	     -3.25557948	     26.51204540	     -8.02318212	      4.39782107	    -25.25465810	      4.01292160	     16.29389610	     -2.61651569	      1.61711598	      7.56173637
      2.85000000	     -2.68101697	      2.12638711	    -17.97187095	     -0.15147145	      0.85847212	     -0.67555914	      2.90655623	     -0.42774718	     15.13344174	    -48.92930731	     11.30702928	     -3.91324647	     25.73442097	     -7.50606666	      3.44845791	    -25.42129091	      4.68972315	     15.45440886	     -2.83371835	      0.90198081	      7.40471185
      2.86000000	     -2.49407228	      2.66849320	    -18.94850538	     -0.14420974	      0.85965291	     -0.67509410	      4.78187966	     -1.10645447	     13.89046073	    -52.42243996	      9.71478506	     -4.81646044	     24.89663659	     -7.05260332	      2.43776343	    -25.37403511	      5.31117167	     14.58720346	     -2.99559130	      0.22906888	      7.35515786
      2.87000000	     -2.34542086	      3.19875342	    -20.04175958	     -0.13726475	      0.86082206	     -0.67442600	      6.78622242	     -1.81677481	     12.66957611	    -55.81717237	      8.38964977	     -5.76805346	     24.04023907	     -6.65661153	      1.31472312	    -25.19771337	      5.90480774	     13.83949969	     -3.11008614	     -0.40929725	      7.35323460
      2.88000000	     -2.23758796	      3.68381628	    -21.22875947	     -0.13063017	      0.86200283	     -0.67355529	      8.86172450	     -2.50758138	     11.47406462	    -59.02579047	      7.39573184	     -6.75208537	     23.17631939	     -6.34377167	      0.10686661	    -24.91737459	      6.44090823	     13.15139571	     -3.18557352	     -0.97803485	      7.40964182
      2.89000000	     -2.17045948	      4.10961423	    -22.49292980	     -0.12431664	      0.86320908	     -0.67248016	     10.96009025	     -3.11906005	     10.35629421	    -61.98774441	      6.76707440	     -7.64089104	     22.31550829	     -6.12264939	     -1.16663642	    -24.55703844	      6.90919172	     12.58852703	     -3.23036104	     -1.45866618	      7.47981407
      2.90000000	     -2.15066654	      4.43520427	    -23.78828910	     -0.11833365	      0.86446903	     -0.67120640	     13.02834274	     -3.56880272	      9.28814903	    -64.64839579	      6.46878957	     -8.52842254	     21.46764550	     -6.01431490	     -2.39860548	    -24.14532244	      7.32256014	     12.05174747	     -3.26450432	     -1.81346699	      7.55803465
      2.91000000	     -2.17506703	      4.64953843	    -25.07478194	     -0.11264040	      0.86578016	     -0.66971730	     15.00830077	     -3.81862174	      8.23776358	    -66.96221514	      6.51827504	     -9.21914974	     20.65504109	     -6.03315488	     -3.63316185	    -23.74269340	      7.69396735	     11.63593498	     -3.29927336	     -2.03546476	      7.55640939
      2.92000000	     -2.24911071	      4.73265273	    -26.30851179	     -0.10719898	      0.86715124	     -0.66803830	     16.85799238	     -3.82193232	      7.16694145	    -68.89984285	      6.80718550	     -9.68888027	     19.87886153	     -6.18346398	     -4.78709224	    -23.36625979	      8.04184946	     11.29437192	     -3.34908868	     -2.10565253	      7.46653696
      2.93000000	     -2.36653177	      4.66678876	    -27.45294357	     -0.10196160	      0.86860446	     -0.66617579	     18.52747203	     -3.55646240	      6.03362215	    -70.43511878	      7.22763664	     -9.85471402	     19.12638494	     -6.47451546	     -5.83232401	    -23.02896537	      8.37589426	     11.02316324	     -3.43392090	     -2.01435305	      7.25824968
      2.94000000	     -2.51572420	      4.45738551	    -28.49342821	     -0.09687973	      0.87015303	     -0.66412887	     19.98736494	     -3.03466292	      4.81848240	    -71.55256374	      7.65773642	     -9.69953753	     18.36976709	     -6.89213486	     -6.75577223	    -22.71200912	      8.69135948	     10.82888819	     -3.56973834	     -1.77710328	      6.91871754
      2.95000000	     -2.70487821	      4.14452187	    -29.38063098	     -0.09187823	      0.87171042	     -0.66201331	     21.26559530	     -2.34083247	      3.46385812	    -72.27490798	      8.01743119	     -8.94699535	     17.65791101	     -7.38794455	     -7.52104486	    -22.45080419	      9.00382628	     10.59661657	     -3.72770271	     -1.42628218	      6.41089492
      2.96000000	     -2.87078113	      3.72517095	    -30.16235381	     -0.08691994	      0.87335795	     -0.65975247	     22.30428127	     -1.51054416	      2.01342279	    -72.60399606	      8.24804868	     -7.84492440	     16.88562810	     -7.94945809	     -8.20347792	    -22.19598294	      9.28716919	     10.46414414	     -3.96993509	     -0.99572574	      5.78316756
      2.97000000	     -3.01598712	      3.25534966	    -30.85265824	     -0.08196738	      0.87499839	     -0.65737752	     23.15526706	     -0.62429655	      0.49576119	    -72.58531084	      8.39808973	     -6.40181016	     16.06620651	     -8.52086956	     -8.80310691	    -21.92613570	      9.57833646	     10.35575672	     -4.25635519	     -0.53751609	      5.05808701
      2.98000000	     -3.13122316	      2.75479353	    -31.47562399	     -0.07700674	      0.87660267	     -0.65491091	     23.83836164	      0.26428132	     -1.07160329	    -72.25273347	      8.48779997	     -4.80427460	     15.20038571	     -9.08351374	     -9.35682191	    -21.64982011	      9.87497835	     10.25697992	     -4.58221414	     -0.06933025	      4.26500825
